Coordinates
version=1
nRows=7
nColumns=33
inDegrees=yes

Units are S.I. units (second, meters, Newtons, ...)
Angles are in degrees.

endheader
time	ground_thorax_rot_x	ground_thorax_rot_y	ground_thorax_rot_z	ground_thorax_tx	ground_thorax_ty	ground_thorax_tz	clav_prot_r	clav_elev_r	scapula_abduction_r	scapula_elevation_r	scapula_upward_rot_r	scapula_winging_r	shoulder_elv_r	plane_of_elev_r	axial_rot_r	elbow_flexion_r	pro_sup_r	wrist_flex_r	wrist_dev_r	clav_prot_l	clav_elev_l	scapula_abduction_l	scapula_elevation_l	scapula_upward_rot_l	scapula_winging_l	shoulder_elv_l	plane_of_elev_l	axial_rot_l	elbow_flexion_l	pro_sup_l	wrist_flex_l	wrist_dev_l
      3.24000000	     -3.70971102	      4.87291299	     10.28416516	     -0.10620806	      1.02660101	      0.01220810	     16.95589330	    -15.47932108	     41.57298351	    -15.14785337	     22.17981339	    -10.18453923	     -3.32863477	    -55.94377252	    121.56865416	    -32.94274689	   -140.95847616	     -2.94444244	      4.42822874	     25.37486243	    -10.14053661	    -38.15447904	     -6.94652233	    -25.49803911	     13.05314811	     55.61056619	      1.10528241	      4.36859511	     15.54135882	     14.99784228	     22.86858582	     -4.30767114
      3.25000000	     -3.83549094	      4.64008224	     10.23440294	     -0.10547757	      1.02664338	      0.01217004	     16.96969409	    -15.43847516	     41.63191092	    -15.12538168	     22.23305448	    -10.23253700	     -3.45975306	    -55.74265571	    121.68616550	    -32.99013064	   -141.01068227	     -2.87369020	      4.44212720	     25.42866685	    -10.25671084	    -38.23173004	     -6.81266086	    -25.42828586	     13.08067313	     55.66235602	      1.09440352	      4.27359541	     15.05658715	     15.03472418	     22.82288988	     -4.16622085
      3.26000000	     -3.70602538	      4.71951436	     10.10357146	     -0.10504036	      1.02693970	      0.01204764	     16.97181019	    -15.18438410	     41.70401560	    -14.92491429	     22.31338771	    -10.42959712	     -3.42908226	    -55.76665340	    121.69164105	    -32.89936650	   -141.21316747	     -2.73514198	      4.40091832	     25.46863183	    -10.59507620	    -38.26664300	     -6.38537984	    -25.12320720	     13.04521634	     55.53408737	      1.52722832	      4.32249966	     13.76440399	     15.11012993	     22.52561939	     -3.72550057
      3.27000000	     -3.54904424	      4.56965945	      9.95019399	     -0.10439528	      1.02687099	      0.01204664	     16.87576292	    -14.71313547	     41.75571678	    -14.58645520	     22.56862833	    -10.73240955	     -3.63667313	    -55.74551960	    121.83294814	    -33.07110572	   -141.62668046	     -2.36588656	      4.31238505	     25.44504218	    -10.75523548	    -38.20939240	     -6.21797914	    -25.04951941	     12.97514696	     55.41928185	      1.86665633	      4.95186753	     13.06096250	     15.05243279	     21.80377010	     -3.38041071
      3.28000000	     -3.61350620	      4.34881003	      9.91448271	     -0.10424253	      1.02691324	      0.01199877	     16.86201604	    -14.66642679	     41.74819080	    -14.55077460	     22.58427744	    -10.75724662	     -3.70768173	    -55.69212080	    121.85666742	    -33.13844798	   -141.67253153	     -2.31415011	      4.30604731	     25.46123910	    -10.77934137	    -38.23383527	     -6.20710043	    -25.07182162	     12.98715477	     55.45220640	      1.81762682	      4.99940344	     12.94966265	     15.05750675	     21.74127212	     -3.35277441
      3.29000000	     -3.66476296	      4.25890380	      9.87777081	     -0.10433035	      1.02693573	      0.01182553	     16.85700107	    -14.63724385	     41.71630316	    -14.51565175	     22.54605174	    -10.76878590	     -3.71794531	    -55.74181147	    121.84326878	    -33.13171701	   -141.67775975	     -2.31149260	      4.30468410	     25.46423901	    -10.78861755	    -38.23863737	     -6.19288910	    -25.05790098	     12.99055341	     55.46486156	      1.82970687	      5.00921591	     12.94158668	     15.05676289	     21.73378127	     -3.35066608
      3.30000000	     -3.29258913	      3.91751066	      9.99048767	     -0.10393550	      1.02672513	      0.01196655	     16.80541396	    -14.00156819	     41.81565274	    -14.02257411	     22.75629131	    -11.20687764	     -4.39932308	    -56.20369506	    121.99934405	    -33.75673428	   -143.59213345	     -0.80772557	      4.23814795	     25.25101835	    -10.98809750	    -37.85146110	     -6.15703997	    -25.31542953	     12.68191259	     55.28287321	      2.15657933	      6.81140389	     12.31116821	     15.14228766	     20.04748788	     -3.29876899
